<?xml version="1.0" encoding="utf-8"?>
<!-- Generator: Adobe Illustrator 25.1.0, SVG Export Plug-In . SVG Version: 6.00 Build 0)  -->
<svg version="1.1" id="Layer_1" xmlns="http://www.w3.org/2000/svg" xmlns:xlink="http://www.w3.org/1999/xlink" x="0px" y="0px"
	 viewBox="0 0 500 273.9" style="enable-background:new 0 0 500 273.9;" xml:space="preserve">
<style type="text/css">
	.st0{fill:#363438;}
</style>
<g>
	<path class="st0" d="M431.1,235.3c-22.1-7.6-51.9-16.5-91.8-26.8H54.2l-13.9,10L431.1,235.3z"/>
	<path class="st0" d="M54.8,225v13.5c36.9,2.6,165.8,13,236.1,18.8l54.1-5.5c5.3-4.5,11.4-9.6,16.2-13.6L54.8,225z"/>
	<path class="st0" d="M146.3,265.8h26.1l5.6-12.5l-31.6-2.5C146.3,265.8,146.3,265.8,146.3,265.8z"/>
	<path class="st0" d="M101.1,265.8h26.1l7.5-16l-33.4-2.7C101.1,265.8,101.1,265.8,101.1,265.8z"/>
	<path class="st0" d="M190.8,265.8h26.1l3.9-9.1l-29.9-2.4C190.8,265.8,190.8,265.8,190.8,265.8z"/>
	<path class="st0" d="M368.4,97.2l-8.9-20.9h11.3v-4.7L252,47.3h-23.4L209.2,5.2h-26.1c0,0,0,0,0.5,41.2L164.7,5.2h-26.1
		c0,0,0,0,0.5,42.1h-0.2L119.5,5.2H93.4c0,0,0,0,0.5,42.1H66.1v30.2l-35,6.1l2.4,8.9h10.7v13.7H33.4l-6.9,20.8l-21.6,1.9L53.6,200
		h285.1c141.4-73.7,155-113.7,155-113.7L368.4,97.2z M263.6,92.6v13.7h-25.4V92.6H263.6z M232.6,92.6v13.7h-25.7V92.6H232.6z
		 M201.4,92.6v13.7h-25.7V92.6H201.4z M170.2,92.6v13.7h-25.7V92.6H170.2z M138.9,92.6v13.7h-26V92.6H138.9z M107.4,92.6v13.7H81.1
		V92.6H107.4z M49.6,92.6h26v13.7h-26V92.6z"/>
</g>
</svg>
