<svg viewBox="0 0 280 280" fill="none" xmlns="http://www.w3.org/2000/svg"><g transform="translate(40, 36)"><path d="M100 0C69.072 0 44 25.072 44 56v6.166c-5.675.952-10 5.888-10 11.834v14c0 6.052 4.48 11.058 10.305 11.881 2.067 19.806 14.458 36.541 31.695 44.73V163h-4c-39.764 0-72 32.236-72 72v9h200v-9c0-39.764-32.236-72-72-72h-4v-18.389c17.237-8.189 29.628-24.924 31.695-44.73C161.52 99.058 166 94.052 166 88V74c0-5.946-4.325-10.882-10-11.834V56c0-30.928-25.072-56-56-56z" fill="#AE5D29"/><path d="M76 144.611v8A55.79 55.79 0 00100 158a55.789 55.789 0 0024-5.389v-8A55.789 55.789 0 01100 150a55.79 55.79 0 01-24-5.389z" fill="#000" fill-opacity=".1"/></g><g transform="translate(8, 170)"><path d="M132 57.052c14.912 0 27-11.193 27-25 0-1.015-.065-2.017-.192-3H160c39.764 0 72 32.235 72 72V110H32v-8.948c0-39.765 32.236-72 72-72h1.192a23.418 23.418 0 00-.192 3c0 13.807 12.088 25 27 25z" fill="#E6E6E6"/><path d="M100.778 29.122c.072-.378.145-.752.222-1.122-2.959.054-6 1-6 1l-.42.662C59.267 34.276 32 64.48 32 101.052V110h74s-10.7-51.555-5.238-80.793l.023-.085h-.007zM158 110s11-53 5-82c2.959.054 6 1 6 1l.419.662C204.733 34.276 232 64.48 232 101.052V110h-74z" fill="#3C4F5C"/><path d="M183.423 85.77l.871-2.24 6.262-4.697a4 4 0 014.856.043L202 84l-18.577 1.77z" fill="#E6E6E6"/><path fill-rule="evenodd" clip-rule="evenodd" d="M101 28c-6 29 5 82 5 82H90L76 74l6-9-6-6 19-30s3.041-.946 6-1zm62 0c6 29-5 82-5 82h16l14-36-6-9 6-6-19-30s-3.041-.946-6-1z" fill="#000" fill-opacity=".15"/><path d="M108 21.539c-6.772 4.597-11 11.117-11 18.349 0 7.4 4.428 14.057 11.48 18.669l5.941-4.68 4.579.33-1-3.15.078-.062C111.978 47.853 108 42.7 108 36.877V21.539zm48 15.338c0 5.823-3.978 10.976-10.078 14.118l.078.062-1 3.15 4.579-.33 5.941 4.68c7.052-4.612 11.48-11.268 11.48-18.67 0-7.23-4.228-13.751-11-18.348v15.338z" fill="#F2F2F2"/></g><g transform="translate(86, 134)"><path fill-rule="evenodd" clip-rule="evenodd" d="M29 15.609C30.41 25.23 41.062 33 54 33c12.968 0 23.646-7.817 25-18.26.101-.4-.225-1.74-2.174-1.74H31.174c-1.79 0-2.304 1.24-2.174 2.609z" fill="#000" fill-opacity=".7"/><path d="M70 13H39a5 5 0 005 5h21a5 5 0 005-5z" fill="#fff"/><path d="M43 23.5l.001.067-.001.063v8.87C43 38.851 48.149 44 54.5 44S66 38.851 66 32.5v-8.87l-.001-.063L66 23.5c0-1.933-2.91-3.5-6.5-3.5-2.01 0-3.808.491-5 1.264-1.192-.773-2.99-1.264-5-1.264-3.59 0-6.5 1.567-6.5 3.5z" fill="#FF4F6D"/></g><g transform="translate(112, 122)"><path fill-rule="evenodd" clip-rule="evenodd" d="M16 8c0 4.418 5.373 8 12 8s12-3.582 12-8" fill="#000" fill-opacity=".16"/></g><g transform="translate(84, 90)"><path d="M44 20.727c0 4.268-6.268 7.727-14 7.727s-14-3.46-14-7.727S22.268 13 30 13s14 3.46 14 7.727zm52 0c0 4.268-6.268 7.727-14 7.727s-14-3.46-14-7.727S74.268 13 82 13s14 3.46 14 7.727z" fill="#fff"/><path d="M32.82 28.297c-.91.103-1.854.157-2.82.157-.966 0-1.91-.054-2.82-.157a6 6 0 115.64 0zm52 0c-.91.103-1.854.157-2.82.157-.966 0-1.91-.054-2.82-.157a6 6 0 115.64 0z" fill="#000" fill-opacity=".7"/></g><g transform="translate(84, 82)"><path d="M15.591 14.162c4.496-6.326 14.012-9.509 23.756-6.366a2 2 0 101.228-3.807c-11.408-3.68-22.74.11-28.244 7.856a2 2 0 103.26 2.317zm80.786 6.996c-3.914-5.509-14.647-8.598-23.892-6.328a2 2 0 01-.954-3.884c10.736-2.637 23.165.94 28.107 7.895a2 2 0 11-3.26 2.317z" fill="#000" fill-opacity=".6"/></g><g transform="translate(7, 0)"><path d="M133 18c-40.87 0-74 33.13-74 74v96a73.889 73.889 0 004.125 24.423C74.924 203.973 89.381 199 105 199h4v-18.389c-17.53-8.328-30.048-25.496-31.791-45.744C71.43 134.002 67 129.019 67 123v-13c0-1.147.16-2.256.461-3.306 17.13-6.012 33.746-21.936 43.585-44.036.41-.92.803-1.84 1.181-2.762 4.586 12.236 13.216 21.116 25.891 26.639-4.872-5.947-9.022-12.875-12.448-20.783 7.976 8.506 18.347 16.74 30.479 23.743 14.33 8.274 28.916 13.562 41.872 15.75A11.96 11.96 0 01199 110v13c0 6.019-4.431 11.002-10.209 11.867-1.743 20.248-14.26 37.416-31.791 45.744V199h4c15.619 0 30.076 4.973 41.875 13.423A73.896 73.896 0 00207 188V92c0-40.87-33.131-74-74-74z" fill="#E8E1E1"/><path d="M111.046 62.658C99.59 88.39 78.946 105.75 59 108.838v4c19.945-3.088 40.59-20.448 52.046-46.18.41-.92.803-1.84 1.181-2.762 4.586 12.236 13.216 21.116 25.891 26.639a78.162 78.162 0 01-4.622-6.26c-10.175-5.567-17.264-13.693-21.269-24.379a98.804 98.804 0 01-1.181 2.762zm18.457 10.982c7.363 7.112 16.373 13.924 26.646 19.855 17.752 10.25 35.898 15.918 50.851 16.786v-4c-14.953-.868-33.099-6.536-50.851-16.786-12.132-7.004-22.503-15.237-30.479-23.743a98.293 98.293 0 003.833 7.888z" fill="#000" fill-opacity=".16"/></g></svg>