<svg viewBox="0 0 280 280" fill="none" xmlns="http://www.w3.org/2000/svg"><g transform="translate(40, 36)"><path d="M100 0C69.072 0 44 25.072 44 56v6.166c-5.675.952-10 5.888-10 11.834v14c0 6.052 4.48 11.058 10.305 11.881 2.067 19.806 14.458 36.541 31.695 44.73V163h-4c-39.764 0-72 32.236-72 72v9h200v-9c0-39.764-32.236-72-72-72h-4v-18.389c17.237-8.189 29.628-24.924 31.695-44.73C161.52 99.058 166 94.052 166 88V74c0-5.946-4.325-10.882-10-11.834V56c0-30.928-25.072-56-56-56z" fill="#FFDBB4"/><path d="M76 144.611v8A55.79 55.79 0 00100 158a55.789 55.789 0 0024-5.389v-8A55.789 55.789 0 01100 150a55.79 55.79 0 01-24-5.389z" fill="#000" fill-opacity=".1"/></g><g transform="translate(8, 170)"><path d="M132.5 54c18.502 0 33.5-9.626 33.5-21.5a14.08 14.08 0 00-.376-3.232C202.76 32.138 232 63.18 232 101.052V110H32v-8.948c0-38.217 29.775-69.48 67.393-71.855A14.108 14.108 0 0099 32.5C99 44.374 113.998 54 132.5 54z" fill="#E5E5E5"/><g transform="translate(77, 228)"><path fill-rule="evenodd" clip-rule="evenodd" d="M63.78 29.736c-2.389 2.657-4.857 5.244-7.335 7.82.985-3.552 1.74-7.577 3.204-10.956.416-.963.1-1.085.927-1.494.609-.302 2.078.043 2.807.062 1.557.039 3.15.192 4.696-.05a221.823 221.823 0 00-4.298 4.619zm-15.264 4.062c-2.699-3.282-5.384-6.568-8.658-9.317 1.289.137 2.696-.043 3.958.206 1.944.384 1.837.99 2.82 2.959 1.45 2.906 2.889 5.789 4.05 8.823-.711-.9-1.441-1.785-2.17-2.67zm-9.098-12.531c.963-1.575 1.144-2.972 2.92-3.78 2.06-.939 5.3-.742 7.488-.916-1.37 1.523-3.037 3.103-3.604 5.122-.874-1.718-1.962-3.174-3.67-4.17-.215-.107 1.158 4.55 1.338 4.87-1.716-.096-3.522-.408-5.225-.092l.753-1.034zm16.406-5.008c1.592.036 3.17.16 4.74.42-1.267 1.675-1.649 3.631-2.099 5.63-.478-2.258-2.209-4.362-3.734-6.048l1.093-.002zm-3.498 1.074c.234-.158 4.457 5.086 5.066 5.556-3.312-.008-6.618-.17-9.926-.315 1.907-1.487 3.023-3.688 4.86-5.24zm2.687 17.096c-.402 1.349-.778 2.708-1.215 4.047-1.555-4.732-3.862-9.188-6.008-13.674 3.34.088 6.676.209 10.016.256-.82 3.158-1.862 6.245-2.793 9.37zm7.229-17.463c1.277 1.128 3.097 3.44 3.686 4.217.059.077.118.154.179.23.21.261.966 1.255 1.263 1.644-2.227-.226-4.545-.13-6.78-.15.498-2.054 1.104-4.012.584-6.128.357.057.712.12 1.068.187zm7.648 5.617c-2.158-2.676-4.37-7.258-7.864-8.077-3.472-.814-7.548-.454-11.074-.23-3.075.194-8.083-.204-10.795 1.593-1.393.923-2.425 3.005-2.908 4.551-.434 1.393.266 2.285-1.246 2.285-.096 0 2.504 3.673 2.81 3.962 2.272 2.14 4.444 4.202 6.457 6.597 2.835 3.374 5.405 8.338 9.145 9.736-.686-.339 2.792-2.967 3.21-3.419 2.11-2.288 4.246-4.554 6.372-6.83 1.938-2.073 4.05-4.03 5.93-6.15 1.435-1.618 1.439-2.175-.037-4.018zM35.999 14c.043.014-.909-2.045-.825-1.919-.475-.718-1.046-1.24-1.738-1.727C32.708 9.843 29.127 9.254 29 9c1.494 2.652 4.167 4.128 6.999 5zm15.356-4.804A6.21 6.21 0 0052.15 11c.07.078.859-4.184.85-4.547C52.988 5.832 52.613 2 51.815 2c-1.337 0-.674 6.47-.459 7.196zM77.97 7c-2.992 0-9.68 5.854-8.908 9 .005.01.447-.35.35-.283a.849.849 0 00.057-.043c1.272-1.025 2.718-2.02 3.992-3.206.911-.85 1.987-1.612 2.816-2.54C76.362 9.832 78.263 7 77.97 7z" fill="#fff"/></g></g><g transform="translate(86, 134)"><path fill-rule="evenodd" clip-rule="evenodd" d="M35.118 15.128C36.176 24.62 44.226 32 54 32c9.804 0 17.874-7.426 18.892-16.96.082-.767-.775-2.04-1.85-2.04H37.088c-1.08 0-2.075 1.178-1.97 2.128z" fill="#000" fill-opacity=".7"/><path d="M70 13H39a5 5 0 005 5h21a5 5 0 005-5z" fill="#fff"/><path d="M66.694 27.138A10.964 10.964 0 0059 24c-1.8 0-3.5.433-5 1.2-1.5-.767-3.2-1.2-5-1.2-2.995 0-5.71 1.197-7.693 3.138A18.93 18.93 0 0054 32c4.88 0 9.329-1.84 12.694-4.862z" fill="#FF4F6D"/></g><g transform="translate(112, 122)"><path fill-rule="evenodd" clip-rule="evenodd" d="M16 8c0 4.418 5.373 8 12 8s12-3.582 12-8" fill="#000" fill-opacity=".16"/></g><g transform="translate(84, 90)"><path d="M44 22c0 7.732-6.268 14-14 14s-14-6.268-14-14S22.268 8 30 8s14 6.268 14 14zm52 0c0 7.732-6.268 14-14 14s-14-6.268-14-14S74.268 8 82 8s14 6.268 14 14z" fill="#fff"/><path d="M36 22a6 6 0 11-12 0 6 6 0 0112 0zm52 0a6 6 0 11-12 0 6 6 0 0112 0z" fill="#000" fill-opacity=".7"/></g><g transform="translate(84, 82)"><path fill-rule="evenodd" clip-rule="evenodd" d="M22.766 1.578l.911-.402C28.92-.905 36.865-.033 41.723 2.299c.567.272.18 1.153-.402 1.108-14.919-1.151-24.963 8.146-28.375 14.44-.101.187-.407.208-.482.034-2.308-5.319 4.45-13.985 10.302-16.303zm66.468 0l-.911-.402C83.08-.905 75.135-.033 70.277 2.299c-.567.272-.18 1.153.402 1.108 14.919-1.151 24.963 8.146 28.375 14.44.101.187.407.208.483.034 2.307-5.319-4.45-13.985-10.303-16.303z" fill="#000" fill-opacity=".6"/></g><g transform="translate(56, 72)"><path fill-rule="evenodd" clip-rule="evenodd" d="M101.428 98.169c-2.513 2.294-5.19 3.325-8.575 2.604-.582-.124-2.957-4.538-8.853-4.538-5.897 0-8.27 4.414-8.853 4.538-3.385.721-6.062-.31-8.576-2.604-4.725-4.313-8.654-10.26-6.293-16.75 1.23-3.382 3.232-7.095 6.873-8.173 3.887-1.15 9.346-.002 13.264-.788 1.27-.254 2.656-.707 3.585-1.458.929.75 2.316 1.204 3.585 1.458 3.918.786 9.376-.362 13.264.788 3.641 1.078 5.642 4.79 6.873 8.173 2.361 6.49-1.568 12.437-6.294 16.75zM140.081 26c-3.41 8.4-2.093 18.858-2.724 27.676-.513 7.167-2.02 17.91-8.384 22.538-3.255 2.368-9.179 6.346-13.431 5.236-2.927-.764-3.24-9.16-7.087-12.303-4.363-3.565-9.812-5.131-15.306-4.89-2.37.105-7.165.08-9.15 1.903-1.983-1.822-6.777-1.798-9.148-1.902-5.494-.242-10.943 1.324-15.306 4.889-3.847 3.143-4.16 11.54-7.087 12.303-4.252 1.11-10.176-2.868-13.431-5.236-6.365-4.628-7.87-15.37-8.384-22.538-.63-8.818.686-19.276-2.724-27.676-1.66 0-.565 16.129-.565 16.129v20.356c.032 15.288 9.581 38.17 30.754 46.908C63.286 111.53 75.015 115 84 115s20.714-3.14 25.892-5.277c21.173-8.737 30.722-31.95 30.754-47.238V42.13S141.74 26 140.081 26z" fill="#B58143"/></g><g transform="translate(7, 0)"><path fill-rule="evenodd" clip-rule="evenodd" d="M76 98c.347 1.488 1.673 1.223 2 0-.463-1.554 3.296-28.752 13-36 3.618-2.517 23.008-4.768 42.313-4.754C152.409 57.259 171.421 59.51 175 62c9.704 7.248 13.463 34.446 13 36 .327 1.223 1.653 1.488 2 0 .719-10.298 0-63.726-57-63-57 .726-57.719 52.702-57 63z" fill="#F59797"/></g></svg>