<svg viewBox="0 0 280 280" fill="none" xmlns="http://www.w3.org/2000/svg"><g transform="translate(40, 36)"><path d="M100 0C69.072 0 44 25.072 44 56v6.166c-5.675.952-10 5.888-10 11.834v14c0 6.052 4.48 11.058 10.305 11.881 2.067 19.806 14.458 36.541 31.695 44.73V163h-4c-39.764 0-72 32.236-72 72v9h200v-9c0-39.764-32.236-72-72-72h-4v-18.389c17.237-8.189 29.628-24.924 31.695-44.73C161.52 99.058 166 94.052 166 88V74c0-5.946-4.325-10.882-10-11.834V56c0-30.928-25.072-56-56-56z" fill="#D08B5B"/><path d="M76 144.611v8A55.79 55.79 0 00100 158a55.789 55.789 0 0024-5.389v-8A55.789 55.789 0 01100 150a55.79 55.79 0 01-24-5.389z" fill="#000" fill-opacity=".1"/></g><g transform="translate(8, 170)"><path d="M132.5 54c18.502 0 33.5-9.626 33.5-21.5a14.08 14.08 0 00-.376-3.232C202.76 32.138 232 63.18 232 101.052V110H32v-8.948c0-38.217 29.775-69.48 67.393-71.855A14.108 14.108 0 0099 32.5C99 44.374 113.998 54 132.5 54z" fill="#FFFFB1"/><g transform="translate(77, 228)"><path fill-rule="evenodd" clip-rule="evenodd" d="M10.272 30.131c3.273-.558 5.73-3.553 5.18-6.787-.464-2.724-1.745-.343-2.976.853-1.335 1.298-2.45 2.574-4.536 2.054-3.607-.9-4.858-5.4-3.84-8.48a5.941 5.941 0 013.478-3.696c1.852-.746 3.204.09 4.748 1.094.289.188 1.73 1.37 1.994 1.25.462-.211.115-2.43.045-2.725-.338-1.421-1.266-2.575-2.617-3.238-3.333-1.635-7.514.489-9.64 3.055-4.884 5.897-.92 18.164 8.164 16.62zm10.011-19.093c0 .001-.001.003 0 0zm-1.594 12.865c.503 3.474 2.977 6.5 6.952 6.357 4.278-.155 6.056-4.098 7.009-7.486.956-3.399 2.05-7.683.663-11.093-.42-1.032-.685-2.38-1.716-1.53-1.253 1.033-1.409 4.039-1.515 5.442-.2 2.647-.781 9.97-4.108 10.944-4.179 1.222-4.047-5.848-4-7.977.04-1.896.246-3.734-.342-5.584-.313-.985-.59-2.44-1.528-1.634-1.29 1.108-1.453 3.828-1.544 5.327-.144 2.405-.213 4.842.129 7.234zm19.094 2.843c.188.412.624 1.402 1.02 1.679.944.66-.055.708.8-.059.813-.729 1.13-2.717 1.254-3.67.385-2.96-.12-6.109-.087-9.093 1.024 2.218 1.584 4.584 2.386 6.874.554 1.582 1.396 4.804 3.654 4.753 2.443-.055 2.57-3.145 2.894-4.819.461-2.37.97-4.721 1.676-7.037.092 3.91-1.427 10.995 2.108 13.92.014.013 1.432-4.15 1.467-4.406.223-1.691.083-3.444.107-5.148.051-3.597.718-8.003-.3-11.506-.328-1.134-.975-2.264-2.409-2.233-1.825.04-2.233 1.985-2.698 3.298-1.28 3.614-2.445 7.224-3.357 10.94-.548-1.68-5.339-16.421-8.789-10.901-.555.888-.315 2.218-.338 3.196-.044 1.879-.155 3.756-.196 5.635-.061 2.843-.41 5.907.808 8.577zM62.02 13.71c.72-.136 5.735-1.727 5.523-.136-.223 1.675-4.633 3.309-5.816 3.876a10.629 10.629 0 00-.643-3.567l.936-.173zm5.717-.64c-.027-.035 0 0 0 0zm.122 8.341c2.273 1.22 1.287 3.417-.426 4.608-.649.45-6.53 1.802-6.513 1.663 0 .004 0 .005-.004.005.18-1.695-.257-5.018 1-6.02 1.304-1.04 4.5-.808 5.943-.256zm.062-7.996c.001.003.009.023 0 0zM57.944 30.26c.224.551.86 1.912 1.566 1.945.86.04.794-1.043.929-1.71 3.441 1.721 8.498-.047 10.907-3.03 2.787-3.45 1.348-8.27-2.579-9.745 2.113-1.688 4.026-5.399 1.255-7.49-2.196-1.655-5.828-1.747-8.123-.302-2.735 1.723-3.85 5.833-4.09 9.006-.255 3.382-1.158 8.125.135 11.326zm18.106-8.389c.074 2.07-.15 4.287.332 6.306.171.717.433 1.511.76 2.162.611 1.215.31 1.05 1.032.36 2.172-2.083 1.209-8.575 1.157-11.249-.041-2.078.064-4.28-.513-6.283-.162-.562-1.123-3.348-1.655-3.284-.816.098-1.376 3.93-1.423 4.693-.148 2.396.226 4.895.31 7.295zm18.698.559c-1.583-.137-3.622.075-5.117.557.697-1.916 1.475-4.054 2.239-5.79a81.68 81.68 0 011.493-3.24c1.278 2.686 1.992 5.828 2.832 8.666-.48-.087-.962-.151-1.447-.193zm5.44.725c-.727-2.78-1.579-5.532-2.426-8.28-.537-1.743-1.13-3.911-2.6-5.168-4.163-3.561-6.527 5.85-7.548 8.232-.985 2.296-2.216 4.634-2.85 7.049a9.479 9.479 0 00-.244 3.652c.205 1.519-.004 1.741 1.294.915 1-.637 1.414-1.793 2.227-2.563.144-.136.218-.668.39-.755.189-.096 1.504.253 1.815.274 2.17.151 4.712-.218 6.715-1.054.205.842 1.627 5.962 2.977 5.773.597-.083.965-3.064.992-3.537.087-1.553-.352-3.049-.742-4.538zm9.114-13.723c-.264-1.203-.814-3.292-1.842-2.112-1.391 1.596-1.091 5.173-1.111 7.177-.015 1.451-1.552 12.062.556 11.883-.09 0 .845-1.668.981-1.922.814-1.524 1.13-2.97 1.328-4.722.365-3.237.783-7.111.088-10.304zm-1.138 20.869c-2.239-2.728-6.311.658-5.041 3.374 1.729 3.7 7.331-.56 5.041-3.374zm-13.266 4.244c-2.891-.738-6.297-.24-9.249-.152-3.081.092-6.16.264-9.24.357-6.568.198-13.124.092-19.692.038-12.454-.103-24.935.69-37.383.168-2.672-.112-5.545-.713-8.198-.209-.727.139-3.009.543-3.329 1.266-.336.76 1.402 1.555 2.331 1.955 2.422 1.044 5.329.858 7.9.964 2.93.12 5.887.058 8.819-.014 12.075-.297 24.089-1.343 36.18-1.165 6.976.103 13.937.038 20.913.002 3.319-.018 6.999.525 10.272-.063.552-.1 3.763-.854 3.807-1.836.02-.453-2.806-1.228-3.13-1.311z" fill="#fff"/></g></g><g transform="translate(86, 134)"><path fill-rule="evenodd" clip-rule="evenodd" d="M34.008 38.864C35.128 24.876 38.234 13.008 53.996 13c15.762-.008 18.92 11.943 19.998 25.994.087 1.13-.82 2.006-1.957 2.006-6.687 0-9.367-1.994-18.048-2-8.68-.006-13.232 2-17.896 2-1.144 0-2.197-.737-2.085-2.136z" fill="#000" fill-opacity=".7"/><path d="M67.024 17.573A4.982 4.982 0 0165 18H44a4.977 4.977 0 01-2.672-.773c2.897-2.66 6.95-4.224 12.668-4.227 5.95-.003 10.104 1.698 13.028 4.573z" fill="#fff"/><path d="M69.804 40.922c-2.05-.146-3.757-.477-5.547-.824C61.53 39.57 58.61 39.003 53.99 39c-5.013-.004-8.65.664-11.725 1.229-1.45.266-2.774.509-4.06.648C39.195 35.818 43.652 32 49 32c1.8 0 3.5.433 5 1.2 1.5-.767 3.2-1.2 5-1.2 5.365 0 9.832 3.84 10.804 8.922z" fill="#FF4F6D"/></g><g transform="translate(112, 122)"><path fill-rule="evenodd" clip-rule="evenodd" d="M16 8c0 4.418 5.373 8 12 8s12-3.582 12-8" fill="#000" fill-opacity=".16"/></g><g transform="translate(84, 90)"><path fill-rule="evenodd" clip-rule="evenodd" d="M16.16 27.553C18.007 31.352 22.164 34 26.998 34c4.816 0 8.961-2.63 10.817-6.407.552-1.122-.233-2.04-1.024-1.36-2.451 2.107-5.932 3.423-9.793 3.423-3.74 0-7.124-1.235-9.56-3.228-.891-.728-1.818.014-1.278 1.125zm58 0C76.007 31.352 80.164 34 84.998 34c4.816 0 8.961-2.63 10.817-6.407.552-1.122-.233-2.04-1.024-1.36-2.451 2.107-5.932 3.423-9.793 3.423-3.74 0-7.124-1.235-9.56-3.228-.891-.728-1.818.014-1.278 1.125z" fill="#000" fill-opacity=".6"/></g><g transform="translate(84, 82)"><path fill-rule="evenodd" clip-rule="evenodd" d="M56.997 12.82c0-.003 0-.003 0 0zM96.12 7.602c1.463.56 9.19 6.427 7.865 9.153a.809.809 0 01-1.291.224c-.545-.517-1.576-1.112-1.706-1.184-5.106-2.835-11.299-1.925-16.73-.91-6.12 1.145-12.11 3.487-18.387 2.68-2.04-.263-6.081-1.222-7.626-2.963-.471-.532-.066-1.381.634-1.434 1.443-.11 2.861-.857 4.33-1.274 3.653-1.039 7.398-1.563 11.114-2.29 6.62-1.298 15.17-4.53 21.797-2.002z" fill="#000"/><path fill-rule="evenodd" clip-rule="evenodd" d="M58.76 12.759c-1.171.04-2.797 3.557-.561 3.677 2.235.119 1.73-3.718.56-3.677zm-3.757.031c.001-.003.001-.003 0 0zM15.881 7.573c-1.464.56-9.19 6.427-7.866 9.154a.809.809 0 001.291.224c.546-.518 1.577-1.113 1.707-1.185 5.106-2.834 11.298-1.925 16.73-.909 6.12 1.144 12.109 3.486 18.387 2.679 2.04-.263 6.081-1.221 7.626-2.962.471-.532.066-1.382-.634-1.435-1.444-.11-2.862-.856-4.33-1.274-3.654-1.038-7.399-1.563-11.115-2.29-6.62-1.297-15.17-4.53-21.796-2.002z" fill="#000"/><path fill-rule="evenodd" clip-rule="evenodd" d="M54.973 11.79c1.17.04 2.762 4.5.525 4.673-2.237.173-1.696-4.715-.525-4.674z" fill="#000"/></g><g transform="translate(56, 72)"><path d="M83.998 66.938c-2.5-3.336-12.267-4.749-19.277-3.474-9.653 1.757-13.744 12.303-12.506 14.215.772 1.191 2.482.793 4.26.379.814-.19 1.642-.383 2.401-.428 1.486-.089 3.34.218 5.446.567 4.981.824 11.37 1.88 17.628-1.508a6.041 6.041 0 002.048-1.85 6.041 6.041 0 002.048 1.85c6.257 3.389 12.647 2.332 17.628 1.508 2.106-.349 3.96-.656 5.446-.567.759.045 1.587.238 2.401.428 1.778.414 3.488.812 4.26-.379 1.238-1.912-2.853-12.458-12.507-14.215-7.009-1.275-16.775.138-19.276 3.474z" fill="#2C1B18"/></g><g transform="translate(7, 0)"><path fill-rule="evenodd" clip-rule="evenodd" d="M65.996 77.34A68.436 68.436 0 0065 89v48c0 .973.02 1.942.06 2.905-.02.823-.04 1.527-.06 2.095.138 3.68-1.857 11.795-4.34 21.897-3.876 15.776-8.944 36.399-8.944 52.549 0 13.015 1.983 22.845 3.89 32.297C57.582 258.528 59.475 267.908 59 280h47s-.948-13.209-2.473-26.357c10.051 10.206 22.824 16.833 39.05 16.833 70.549 0 77.623-53.827 77.623-65.233 0-6.04-4.322-10.885-8.386-15.441-3.612-4.049-7.02-7.869-7.011-12.097.009-4.353 1.03-7.395 2.08-10.523 1.117-3.327 2.267-6.753 2.267-11.962 0-5.82-1.432-7.51-2.909-9.255-1.088-1.284-2.201-2.598-2.785-5.611-.881-4.546-1.863-14.324-2.456-20.776V89c0-37.555-30.445-68-68-68-33.487 0-61.321 24.206-66.958 56.076L66 77l-.004.34zM133 53c-30.1 0-55 24.4-55 54.5v23c0 30.1 24.9 54.5 55 54.5s55-24.4 55-54.5v-23c0-30.1-24.9-54.5-55-54.5z" fill="#A7FFC4"/><path d="M193.926 104.96A61.39 61.39 0 00195 93.5c0-33.965-27.758-61.5-62-61.5-34.242 0-62 27.535-62 61.5 0 3.916.369 7.747 1.074 11.46C73.66 72.683 100.33 47 133 47s59.341 25.683 60.926 57.96z" fill="#fff" fill-opacity=".5"/><path d="M78.073 104.686A54.7 54.7 0 0078 107.5v23c0 30.1 24.9 54.5 55 54.5s55-24.4 55-54.5v-23c0-.944-.024-1.882-.073-2.814A54.72 54.72 0 01189 115.5v23c0 30.1-24.4 54.5-54.5 54.5h-3c-30.1 0-54.5-24.4-54.5-54.5v-23c0-3.703.37-7.319 1.073-10.814zm108.977 89.458c-4.388 6.903-17.904 13.661-34.645 16.612-16.742 2.952-31.754 1.225-38.238-3.761.022.261.056.521.101.78 1.71 9.695 19.427 14.675 39.572 11.123 20.145-3.553 35.091-14.292 33.381-23.987a9.041 9.041 0 00-.171-.767zm11.61 15.344c-2.641 9.597-14.874 20.212-31.556 26.284-16.682 6.072-32.877 5.803-41.069.149.096.338.205.673.326 1.005 4.527 12.437 24.47 16.596 44.544 9.29 20.074-7.307 32.678-23.312 28.151-35.749a14.938 14.938 0 00-.396-.979z" opacity=".9" fill="#000" fill-opacity=".16"/></g></svg>