<svg viewBox="0 0 280 280" fill="none" xmlns="http://www.w3.org/2000/svg"><g transform="translate(40, 36)"><path d="M100 0C69.072 0 44 25.072 44 56v6.166c-5.675.952-10 5.888-10 11.834v14c0 6.052 4.48 11.058 10.305 11.881 2.067 19.806 14.458 36.541 31.695 44.73V163h-4c-39.764 0-72 32.236-72 72v9h200v-9c0-39.764-32.236-72-72-72h-4v-18.389c17.237-8.189 29.628-24.924 31.695-44.73C161.52 99.058 166 94.052 166 88V74c0-5.946-4.325-10.882-10-11.834V56c0-30.928-25.072-56-56-56z" fill="#EDB98A"/><path d="M76 144.611v8A55.79 55.79 0 00100 158a55.789 55.789 0 0024-5.389v-8A55.789 55.789 0 01100 150a55.79 55.79 0 01-24-5.389z" fill="#000" fill-opacity=".1"/></g><g transform="translate(8, 170)"><path d="M132.5 51.828c18.502 0 33.5-9.617 33.5-21.48 0-.353-.013-.704-.04-1.053 36.976 3.03 66.04 34 66.04 71.757V110H32v-8.948c0-38.1 29.592-69.287 67.045-71.833-.03.374-.045.75-.045 1.129 0 11.863 14.998 21.48 33.5 21.48z" fill="#E6E6E6"/><path d="M132.5 58.761c21.89 0 39.635-12.05 39.635-26.913 0-.603-.029-1.2-.086-1.793a72.056 72.056 0 00-6.089-.76c.027.349.04.7.04 1.053 0 11.863-14.998 21.48-33.5 21.48-18.502 0-33.5-9.617-33.5-21.48 0-.379.015-.755.045-1.128-2.05.139-4.077.364-6.077.672a18.594 18.594 0 00-.103 1.956c0 14.864 17.745 26.913 39.635 26.913z" fill="#000" fill-opacity=".16"/><path d="M100.778 29.122c.072-.378.145-.752.222-1.122-2.959.054-6 1-6 1l-.42.662C59.267 34.276 32 64.48 32 101.052V110h74s-10.7-51.555-5.238-80.793l.023-.085h-.007zM158 110s11-53 5-82c2.959.054 6 1 6 1l.419.662C204.733 34.276 232 64.48 232 101.052V110h-74z" fill="#A7FFC4"/><path fill-rule="evenodd" clip-rule="evenodd" d="M101 28c-6 29 5 82 5 82H90L76 74l6-9-6-6 19-30s3.041-.946 6-1zm62 0c6 29-5 82-5 82h16l14-36-6-9 6-6-19-30s-3.041-.946-6-1z" fill="#000" fill-opacity=".15"/><path d="M183.423 85.77l.871-2.24 6.262-4.697a4 4 0 014.856.043L202 84l-18.577 1.77z" fill="#E6E6E6"/></g><g transform="translate(86, 134)"><path fill-rule="evenodd" clip-rule="evenodd" d="M35.118 29.872C36.176 20.38 44.226 13 54 13c9.804 0 17.874 7.426 18.892 16.96.082.767-.775 2.04-1.85 2.04H37.088c-1.08 0-2.075-1.178-1.97-2.128z" fill="#000" fill-opacity=".7"/><path d="M69.586 32H38.414c1.306-4.617 5.55-8 10.586-8 1.8 0 3.5.433 5 1.2 1.5-.767 3.2-1.2 5-1.2 5.035 0 9.28 3.383 10.586 8z" fill="#FF4F6D"/><path d="M66.567 17.75c-.493.162-1.02.25-1.567.25H44a4.98 4.98 0 01-2.243-.53A18.923 18.923 0 0154 13c4.818 0 9.218 1.794 12.567 4.75z" fill="#fff"/></g><g transform="translate(112, 122)"><path fill-rule="evenodd" clip-rule="evenodd" d="M16 8c0 4.418 5.373 8 12 8s12-3.582 12-8" fill="#000" fill-opacity=".16"/></g><g transform="translate(84, 90)"><path d="M36 22a6 6 0 11-12 0 6 6 0 0112 0z" fill="#000" fill-opacity=".6"/><path fill-rule="evenodd" clip-rule="evenodd" d="M70.61 24.955c1.576-3.918 5.54-6.85 10.36-7.188 4.805-.335 9.124 1.999 11.24 5.637.628 1.081-.091 2.052-.928 1.428-2.592-1.93-6.156-3-10.008-2.731-3.731.26-7.02 1.729-9.312 3.887-.838.789-1.814.113-1.353-1.033z" fill="#000" fill-opacity=".6"/></g><g transform="translate(84, 82)"><path fill-rule="evenodd" clip-rule="evenodd" d="M38.66 11.09c-4.998.362-9.923.086-14.918-.122-3.83-.158-7.717-.681-11.374 1.012-.7.324-4.53 2.28-4.44 3.349.07.855 3.935 2.191 4.63 2.436 3.67 1.29 7.181.895 10.954.67 4.628-.278 9.236-.074 13.861-.214 3.116-.093 7.917-.62 9.457-4.398.464-1.137.105-3.413-.36-4.657-.185-.496-.72-.683-1.125-.397-1.45 1.023-4.261 2.146-6.685 2.321zm34.68 0c4.998.362 9.923.086 14.918-.122 3.83-.158 7.717-.681 11.374 1.012.7.324 4.53 2.28 4.441 3.349-.071.855-3.936 2.191-4.632 2.436-3.668 1.29-7.18.895-10.954.67-4.627-.278-9.235-.074-13.86-.214-3.116-.093-7.917-.62-9.457-4.398-.464-1.137-.105-3.413.36-4.657.185-.496.72-.683 1.125-.397 1.45 1.023 4.261 2.146 6.685 2.321z" fill="#000" fill-opacity=".6"/></g><g transform="translate(7, 0)"><path fill-rule="evenodd" clip-rule="evenodd" d="M193.765 70.766c-.264-3.317-.732-6.614-1.518-9.855-.625-2.576-1.478-5.034-2.487-7.491-.609-1.485-2.032-3.524-2.2-5.126-.165-1.577 1.067-3.325 1.329-5.162a15.975 15.975 0 00-.155-5.438c-.833-4.023-3.594-7.764-7.857-8.813-.952-.234-2.964.055-3.636-.5-.771-.635-1.308-2.8-2.006-3.669-1.991-2.476-5.095-4.07-8.369-3.514-2.411.409-1.027.907-2.834-.512-1.005-.788-1.756-1.993-2.732-2.847-1.467-1.283-3.15-2.38-4.892-3.282-4.557-2.358-9.754-4.072-14.844-4.908-9.285-1.524-19.195-.195-28.195 2.22-4.479 1.201-8.987 2.726-13.147 4.743-1.783.864-2.813 1.582-4.672 1.808-2.93.357-5.41.339-8.184 1.581-8.536 3.822-12.381 12.689-9.06 21.174a14.637 14.637 0 002.82 4.584c1.521 1.68 2.072 1.35.762 3.282a52.785 52.785 0 00-4.955 9.172c-3.529 8.402-4.12 17.864-3.89 26.824.081 3.137.216 6.313.71 9.42.214 1.344.274 3.872 1.282 4.87.512.506 1.241.788 1.969.587 1.71-.474 1.121-1.735 1.161-2.906.2-5.884-.07-11.089 1.33-16.901 1.033-4.295 2.755-8.195 4.988-12.036 2.838-4.884 5.903-9.173 9.806-13.355.918-.984 1.119-1.4 2.35-1.472.931-.054 2.295.584 3.2.805 1.999.487 4 .968 6.034 1.296 3.74.603 7.444.644 11.217.525 7.426-.232 14.885-.753 22.085-2.623 4.782-1.242 9.022-3.47 13.602-5.105.082-.029 1.23-.847 1.431-.814.281.047 1.977 1.826 2.263 2.05 2.226 1.746 4.667 2.479 7.07 3.83 2.964 1.667.094-.718 1.728 1.359.477.605.721 1.726 1.103 2.411a18.086 18.086 0 004.931 5.624c1.955 1.47 4.893 2.18 5.89 4.095.769 1.477 1.028 3.484 1.648 5.06 1.628 4.136 3.777 7.992 5.926 11.887 1.732 3.14 3.625 5.881 3.818 9.468.067 1.248-1.121 8.737 1.773 6.46.429-.338 1.353-4.156 1.543-4.804.772-2.633 1.046-5.381 1.395-8.086.694-5.38.923-10.498.469-15.916z" fill="#B58143"/></g></svg>