<svg viewBox="0 0 280 280" fill="none" xmlns="http://www.w3.org/2000/svg"><g transform="translate(40, 36)"><path d="M100 0C69.072 0 44 25.072 44 56v6.166c-5.675.952-10 5.888-10 11.834v14c0 6.052 4.48 11.058 10.305 11.881 2.067 19.806 14.458 36.541 31.695 44.73V163h-4c-39.764 0-72 32.236-72 72v9h200v-9c0-39.764-32.236-72-72-72h-4v-18.389c17.237-8.189 29.628-24.924 31.695-44.73C161.52 99.058 166 94.052 166 88V74c0-5.946-4.325-10.882-10-11.834V56c0-30.928-25.072-56-56-56z" fill="#FFDBB4"/><path d="M76 144.611v8A55.79 55.79 0 00100 158a55.789 55.789 0 0024-5.389v-8A55.789 55.789 0 01100 150a55.79 55.79 0 01-24-5.389z" fill="#000" fill-opacity=".1"/></g><g transform="translate(8, 170)"><path d="M92.68 29.936C58.295 35.366 32 65.138 32 101.052V110h200v-8.948c0-35.914-26.294-65.686-60.681-71.116a23.874 23.874 0 01-7.555 13.603l-29.085 26.229a4 4 0 01-5.358 0l-29.085-26.229a23.871 23.871 0 01-7.555-13.603z" fill="#FF488E"/></g><g transform="translate(86, 134)"><path fill-rule="evenodd" clip-rule="evenodd" d="M40.058 27.723C40.708 20.693 46.702 16 54 16c7.342 0 13.363 4.75 13.953 11.848.03.378-.876.676-1.324.451-5.539-2.772-9.749-4.159-12.63-4.159-2.843 0-6.992 1.356-12.445 4.069-.507.252-1.534-.069-1.496-.486z" fill="#000" fill-opacity=".7"/></g><g transform="translate(112, 122)"><path fill-rule="evenodd" clip-rule="evenodd" d="M16 8c0 4.418 5.373 8 12 8s12-3.582 12-8" fill="#000" fill-opacity=".16"/></g><g transform="translate(84, 90)"><path d="M26.998 16c-4.834 0-8.991 2.648-10.838 6.447-.54 1.111.387 1.853 1.277 1.125 2.437-1.993 5.82-3.228 9.56-3.228.082 0 .163 0 .244.002a6 6 0 1010.699 2.8 2 2 0 00-.125-.739 7.55 7.55 0 00-.144-.372 6.007 6.007 0 00-1.646-2.484C33.9 17.317 30.507 16 26.998 16zm58 0c-4.834 0-8.991 2.648-10.838 6.447-.54 1.111.387 1.853 1.278 1.125 2.436-1.993 5.82-3.228 9.56-3.228.08 0 .162 0 .243.002a6 6 0 1010.699 2.8 2 2 0 00-.125-.739 7.55 7.55 0 00-.144-.372 6.007 6.007 0 00-1.646-2.484C91.9 17.317 88.506 16 84.998 16z" fill="#000" fill-opacity=".6"/></g><g transform="translate(84, 82)"><path d="M15.591 14.162c4.496-6.326 14.012-9.509 23.756-6.366a2 2 0 101.228-3.807c-11.408-3.68-22.74.11-28.244 7.856a2 2 0 103.26 2.317zm80.786 6.996c-3.914-5.509-14.647-8.598-23.892-6.328a2 2 0 01-.954-3.884c10.736-2.637 23.165.94 28.107 7.895a2 2 0 11-3.26 2.317z" fill="#000" fill-opacity=".6"/></g><g transform="translate(7, 0)"><path fill-rule="evenodd" clip-rule="evenodd" d="M167.309 35.006c-20.188-11.7-40.18-9.784-55.272-5.976-15.092 3.808-24.02 14.621-31.68 30.618-3.761 7.855-5.991 17.143-6.334 25.833-.135 3.412.325 6.934 1.245 10.22.337 1.205 2.155 5.386 2.654 2.008.166-1.125-.442-2.676-.5-3.871-.078-1.569.005-3.157.112-4.723.2-2.928.722-5.8 1.65-8.59 1.328-3.988 3.017-8.312 5.603-11.677 6.401-8.328 17.482-8.802 26.279-13.384-.763 1.405-3.706 3.68-2.687 5.263.705 1.094 3.37.762 4.643.727 3.349-.092 6.713-.674 10.021-1.147 5.213-.745 10.098-2.255 15.004-4.089 4.016-1.502 8.603-2.892 11.622-6.078 4.871 5.048 11.141 9.794 17.401 13.003 5.618 2.88 14.679 4.318 18.113 10.158 4.065 6.914 2.195 15.406 3.436 22.9.472 2.85 1.545 2.786 2.132.237.997-4.33 1.468-8.828 1.151-13.279-.718-10.048-4.405-36.453-24.593-48.153z" fill="#E8E1E1"/></g><g transform="translate(69, 85)"><path fill-rule="evenodd" clip-rule="evenodd" d="M111.712 10.488c4.666.16 8 .887 10.548 4.518 3.012.156 6.253.374 8.981 1.633 3.385 1.562 3.908 5.1-.359 5.587-1.859.213-3.72-.12-5.552-.448l-.186-.033a9.348 9.348 0 00-.339-.054c1.104 9.461-6.207 20.869-14.228 24.346-10.977 4.76-23.24-.508-29.043-10.033-2.626-4.31-4.142-10.515-4.466-15.86-.42-.204-.83-.441-1.23-.674-.38-.22-.754-.437-1.119-.615-2.007-.978-5.338-1.098-7.506 0-.338.172-.685.374-1.039.582-.426.25-.864.505-1.313.722-.325 5.343-1.841 11.54-4.465 15.847-5.804 9.526-18.067 14.793-29.044 10.033-8.021-3.477-15.333-14.886-14.227-24.348a9.563 9.563 0 00-.338.054l-.185.033c-1.833.328-3.694.66-5.553.448-4.267-.487-3.744-4.025-.359-5.587 2.728-1.259 5.969-1.477 8.982-1.633 2.547-3.63 5.881-4.355 10.546-4.515l23.291-.457c5.189-.14 9.718-.01 11.033 4.606 2.089-.814 4.505-1.255 6.35-1.255 1.858 0 4.348.447 6.49 1.274 1.306-4.638 5.842-4.767 11.039-4.627l23.291.456zm-24.031 6.785c-2.372.022-3.493.416-3.897 2.89-.41 2.505-.012 5.322.46 7.79.721 3.767 1.92 7.459 4.708 10.213 1.47 1.45 3.261 2.606 5.167 3.396 1.012.419 2.081.722 3.15.951.114.025.544.09.963.153.626.094 1.228.185.711.131l-.095-.01-.065-.007a47.075 47.075 0 01.16.017c3.724.397 7.719.312 10.814-2.047 3.533-2.692 5.952-6.952 7.016-11.196.623-2.483 1.93-8.422-.459-10.407-2.737-2.275-28.633-1.874-28.633-1.874zm-33.432.002c2.372.023 3.493.417 3.897 2.89.41 2.506.011 5.322-.46 7.79-.721 3.768-1.92 7.46-4.708 10.214-1.47 1.45-3.261 2.606-5.167 3.395-1.012.42-2.081.722-3.15.952-.114.024-.544.09-.962.152-.64.097-1.255.19-.678.128-3.734.4-7.743.323-10.849-2.044-3.532-2.692-5.952-6.952-7.015-11.196-.623-2.483-1.93-8.422.459-10.407 2.737-2.274 28.633-1.874 28.633-1.874zM43.318 42.764z" fill="#000" fill-opacity=".1"/><path fill-rule="evenodd" clip-rule="evenodd" d="M111.712 8.488c4.666.16 8 .887 10.548 4.518 3.012.156 6.253.374 8.981 1.633 3.385 1.562 3.908 5.1-.359 5.587-1.859.213-3.72-.12-5.552-.448l-.186-.033a9.348 9.348 0 00-.339-.054c1.104 9.461-6.207 20.869-14.228 24.346-10.977 4.76-23.24-.508-29.043-10.033-2.626-4.31-4.142-10.515-4.466-15.86-.42-.204-.83-.441-1.23-.674-.38-.22-.754-.437-1.119-.615-2.007-.978-5.338-1.098-7.506 0-.338.172-.685.374-1.039.582-.426.25-.864.505-1.313.722-.325 5.343-1.841 11.54-4.465 15.847-5.804 9.526-18.067 14.793-29.044 10.033-8.021-3.477-15.333-14.886-14.227-24.348a9.563 9.563 0 00-.338.054l-.185.033c-1.833.328-3.694.66-5.553.448-4.267-.487-3.744-4.025-.359-5.587 2.728-1.259 5.969-1.477 8.982-1.633 2.547-3.63 5.881-4.355 10.546-4.515l23.291-.457c5.189-.14 9.718-.01 11.033 4.606 2.089-.814 4.505-1.255 6.35-1.255 1.858 0 4.348.447 6.49 1.274 1.306-4.638 5.842-4.767 11.039-4.627l23.291.456zm-24.031 6.785c-2.372.022-3.493.416-3.897 2.89-.41 2.505-.012 5.322.46 7.79.721 3.767 1.92 7.459 4.708 10.213 1.47 1.45 3.261 2.606 5.167 3.396 1.012.419 2.081.722 3.15.951.114.025.544.09.963.153.626.094 1.228.185.711.131l-.095-.01-.065-.007a47.075 47.075 0 01.16.017c3.724.397 7.719.312 10.814-2.047 3.533-2.692 5.952-6.952 7.016-11.196.623-2.483 1.93-8.422-.459-10.407-2.737-2.275-28.633-1.874-28.633-1.874zm-33.432.002c2.372.022 3.493.417 3.897 2.89.41 2.506.011 5.322-.46 7.79-.721 3.768-1.92 7.46-4.708 10.214-1.47 1.45-3.261 2.606-5.167 3.395-1.012.42-2.081.722-3.15.952-.114.024-.544.09-.962.152-.64.097-1.255.19-.678.128-3.734.4-7.743.323-10.849-2.044-3.532-2.692-5.952-6.952-7.015-11.196-.623-2.483-1.93-8.422.459-10.407 2.737-2.275 28.633-1.874 28.633-1.874zM43.318 40.764z" fill="#65C9FF"/></g></svg>